<?xml version="1.0" encoding="UTF-8"?>
<!DOCTYPE svg PUBLIC "-//W3C//DTD SVG 1.1//EN" "http://www.w3.org/Graphics/SVG/1.1/DTD/svg11.dtd">
<svg xmlns="http://www.w3.org/2000/svg" version="1.1" width="1024px" height="1024px" style="shape-rendering:geometricPrecision; text-rendering:geometricPrecision; image-rendering:optimizeQuality; fill-rule:evenodd; clip-rule:evenodd" xmlns:xlink="http://www.w3.org/1999/xlink">
<g><path style="opacity:0.996" fill="#1b89e9" d="M 479.5,20.5 C 633.935,14.4515 764.769,66.4515 872,176.5C 973.942,290.342 1016.61,423.675 1000,576.5C 979.965,714.141 915.132,824.974 805.5,909C 680.794,997.742 543.461,1025.41 393.5,992C 257.904,956.342 154.404,878.509 83,758.5C 10.7604,626.16 -1.23965,488.493 47,345.5C 101.833,202.667 200.667,103.833 343.5,49C 387.697,33.3952 433.03,23.8952 479.5,20.5 Z"/></g>
<g><path style="opacity:1" fill="#fefefe" d="M 558.5,311.5 C 649.167,311.333 739.834,311.5 830.5,312C 855.271,312.521 877.937,319.521 898.5,333C 919.4,350.961 931.233,373.795 934,401.5C 938.674,434.45 933.674,465.783 919,495.5C 915.213,500.956 911.046,506.123 906.5,511C 922.413,528.376 931.58,548.876 934,572.5C 937.658,600.602 934.658,627.935 925,654.5C 910.759,685.559 886.592,703.393 852.5,708C 847.167,708.667 841.833,709.333 836.5,710C 743.167,710.667 649.833,710.667 556.5,710C 545.561,707.394 539.061,700.561 537,689.5C 536.333,570.167 536.333,450.833 537,331.5C 539.863,320.135 547.03,313.468 558.5,311.5 Z"/></g>
<g><path style="opacity:1" fill="#fefefe" d="M 272.5,313.5 C 327.834,313.333 383.168,313.5 438.5,314C 465.657,316.302 481.49,330.802 486,357.5C 486.667,459.5 486.667,561.5 486,663.5C 483.833,693.667 467.667,709.833 437.5,712C 380.5,712.667 323.5,712.667 266.5,712C 206.861,704.657 159.361,676.824 124,628.5C 92.2052,581.768 81.2052,530.435 91,474.5C 106.523,407.947 145.023,359.78 206.5,330C 227.768,321.016 249.768,315.516 272.5,313.5 Z"/></g>
<g><path style="opacity:1" fill="#1b89e9" d="M 593.5,369.5 C 673.834,369.333 754.167,369.5 834.5,370C 864.133,375.394 878.466,393.228 877.5,423.5C 879.221,441.839 873.887,457.672 861.5,471C 853.066,476.814 843.733,480.481 833.5,482C 753.501,482.5 673.501,482.667 593.5,482.5C 593.5,444.833 593.5,407.167 593.5,369.5 Z"/></g>
<g><path style="opacity:1" fill="#1b89e9" d="M 270.5,371.5 C 323.5,371.5 376.5,371.5 429.5,371.5C 429.5,466.167 429.5,560.833 429.5,655.5C 376.499,655.667 323.499,655.5 270.5,655C 217.191,646.68 179.024,618.18 156,569.5C 131.502,500.3 147.669,442.8 204.5,397C 224.337,382.669 246.337,374.169 270.5,371.5 Z"/></g>
<g><path style="opacity:1" fill="#1c89e9" d="M 593.5,539.5 C 671.834,539.333 750.167,539.5 828.5,540C 861.529,543.194 877.863,561.361 877.5,594.5C 879.813,629.331 863.813,648.831 829.5,653C 750.834,653.5 672.167,653.667 593.5,653.5C 593.5,615.5 593.5,577.5 593.5,539.5 Z"/></g>
</svg>
