<?xml version="1.0" standalone="no"?>
<!DOCTYPE svg PUBLIC "-//W3C//DTD SVG 20010904//EN"
 "http://www.w3.org/TR/2001/REC-SVG-20010904/DTD/svg10.dtd">
<svg version="1.0" xmlns="http://www.w3.org/2000/svg"
 width="1024.000000pt" height="1024.000000pt" viewBox="0 0 1024.000000 1024.000000"
 preserveAspectRatio="xMidYMid meet">

<g transform="translate(0.000000,1024.000000) scale(0.100000,-0.100000)"
fill="#000000" stroke="none">
<path d="M4970 10024 c-573 -21 -1132 -136 -1655 -341 -166 -66 -496 -224
-650 -313 -747 -430 -1390 -1073 -1816 -1815 -152 -267 -318 -640 -412 -930
-162 -500 -239 -988 -239 -1520 0 -760 160 -1457 491 -2140 110 -227 187 -363
309 -550 417 -640 1007 -1198 1667 -1576 267 -152 640 -318 930 -412 500 -162
988 -239 1520 -239 760 0 1457 160 2140 491 247 120 372 191 590 337 552 367
1026 845 1387 1399 231 355 433 774 561 1170 162 500 239 988 239 1520 0 760
-160 1457 -491 2140 -120 247 -191 372 -337 590 -418 629 -983 1158 -1639
1535 -154 89 -484 247 -650 313 -548 215 -1102 325 -1710 340 -82 2 -188 2
-235 1z m3560 -2928 c243 -47 396 -122 540 -266 145 -145 222 -303 266 -545
25 -137 26 -480 1 -611 -36 -196 -102 -353 -201 -482 l-57 -74 36 -39 c168
-186 254 -496 242 -869 -3 -91 -13 -205 -22 -254 -74 -408 -294 -665 -660
-771 -196 -57 -160 -55 -1712 -53 -1372 3 -1429 4 -1463 22 -49 26 -79 55
-103 101 l-22 40 -3 1805 c-2 1317 0 1816 8 1845 15 54 53 106 91 129 78 46
33 45 1539 43 1335 -2 1431 -4 1520 -21z m-4067 -11 c210 -37 347 -166 392
-368 14 -64 15 -237 13 -1647 l-3 -1575 -21 -55 c-66 -172 -143 -247 -314
-306 -52 -18 -99 -19 -985 -19 -1019 0 -979 -2 -1214 61 -647 174 -1209 738
-1381 1386 -43 163 -60 281 -67 463 -22 581 174 1082 582 1490 328 328 705
514 1155 570 157 19 1734 20 1843 0z"/>
<path d="M5940 5975 l0 -566 1208 3 c1122 3 1211 5 1267 21 186 55 287 152
340 327 9 31 19 109 22 175 10 214 -37 364 -146 468 -67 64 -139 100 -243 121
-68 14 -218 16 -1263 16 l-1185 0 0 -565z"/>
<path d="M5940 4265 l0 -566 1203 4 c1341 3 1257 -1 1399 74 157 82 238 250
238 494 0 243 -88 418 -252 498 -127 62 -86 61 -1395 61 l-1193 0 0 -565z"/>
<path d="M2675 6509 c-156 -20 -365 -91 -495 -168 -307 -182 -555 -485 -653
-797 -85 -268 -89 -580 -11 -850 126 -438 521 -831 960 -954 184 -52 187 -52
1032 -57 l792 -5 0 1421 0 1421 -777 -1 c-428 -1 -809 -6 -848 -10z"/>
</g>
</svg>
